<svg width="20" height="27" viewBox="0 0 20 27" fill="none" xmlns="http://www.w3.org/2000/svg">
<path d="M14.2528 24.8886C13.9934 25.0231 13.6955 25.0999 13.3785 25.0999H4.28001C3.25199 25.0999 2.40652 24.2929 2.35848 23.2745L1.58026 7.99832C1.53222 6.90305 2.40652 5.98071 3.50179 5.98071H14.1567C15.252 5.98071 16.1263 6.89344 16.0782 7.99832L15.5114 19.0663" stroke="#1E8F2B" stroke-width="2.2" stroke-miterlimit="10" stroke-linecap="round"/>
<path d="M14.6372 1.09998H3.02151C1.96028 1.09998 1.09998 1.96027 1.09998 3.02151V4.05913C1.09998 5.12037 1.96028 5.98067 3.02151 5.98067H14.6372C15.6984 5.98067 16.5587 5.12037 16.5587 4.05913V3.02151C16.5587 1.96027 15.6984 1.09998 14.6372 1.09998Z" stroke="#1E8F2B" stroke-width="2.2" stroke-miterlimit="10" stroke-linecap="round"/>
<path d="M15.3674 25.0998C17.0335 25.0998 18.3842 23.7492 18.3842 22.083C18.3842 20.4169 17.0335 19.0662 15.3674 19.0662C13.7013 19.0662 12.3506 20.4169 12.3506 22.083C12.3506 23.7492 13.7013 25.0998 15.3674 25.0998Z" stroke="#1E8F2B" stroke-width="2.2" stroke-miterlimit="10" stroke-linecap="round"/>
</svg>
