<svg width="20" height="27" viewBox="0 0 20 27" fill="none" xmlns="http://www.w3.org/2000/svg">
<path d="M14.2528 24.8886C13.9934 25.0231 13.6955 25.1 13.3785 25.1H4.28001C3.25199 25.1 2.40652 24.293 2.35848 23.2746L1.58026 7.99838C1.53222 6.90311 2.40652 5.98077 3.50179 5.98077H14.1567C15.252 5.98077 16.1263 6.8935 16.0782 7.99838L15.5114 19.0664" stroke="#F1BA00" stroke-width="2.2" stroke-miterlimit="10" stroke-linecap="round"/>
<path d="M14.6372 1.10001H3.02151C1.96028 1.10001 1.09998 1.9603 1.09998 3.02154V4.05916C1.09998 5.1204 1.96028 5.9807 3.02151 5.9807H14.6372C15.6984 5.9807 16.5587 5.1204 16.5587 4.05916V3.02154C16.5587 1.9603 15.6984 1.10001 14.6372 1.10001Z" stroke="#F1BA00" stroke-width="2.2" stroke-miterlimit="10" stroke-linecap="round"/>
<path d="M15.3674 25.0999C17.0335 25.0999 18.3842 23.7492 18.3842 22.0831C18.3842 20.417 17.0335 19.0663 15.3674 19.0663C13.7013 19.0663 12.3506 20.417 12.3506 22.0831C12.3506 23.7492 13.7013 25.0999 15.3674 25.0999Z" stroke="#F1BA00" stroke-width="2.2" stroke-miterlimit="10" stroke-linecap="round"/>
</svg>
